<?xml version="1.0" encoding="utf-8"?>
<!-- Generator: Adobe Illustrator 23.0.6, SVG Export Plug-In . SVG Version: 6.00 Build 0)  -->
<svg version="1.1" id="Capa_1" xmlns="http://www.w3.org/2000/svg" xmlns:xlink="http://www.w3.org/1999/xlink" x="0px" y="0px"
	 viewBox="0 0 200 85" style="enable-background:new 0 0 200 85;" xml:space="preserve">
<style type="text/css">
	.st0{clip-path:url(#SVGID_2_);}
</style>
<g>
	<defs>
		<rect id="SVGID_1_" x="0.5" y="6.4" width="199" height="68.5"/>
	</defs>
	<clipPath id="SVGID_2_">
		<use xlink:href="#SVGID_1_"  style="overflow:visible;"/>
	</clipPath>
	<path class="st0" d="M193.9,32.5c-3.9-4-9.6-5.1-20.6-5.1c-11,0-16.7,1.1-20.7,5.1c-3.9,4-5.6,9.7-5.6,18.6
		c0,8.8,1.7,14.5,5.6,18.7c3.9,3.9,9.6,5.1,20.7,5.1c11,0,16.7-1.2,20.6-5.1c3.9-4.2,5.6-9.9,5.6-18.7
		C199.5,42.2,197.8,36.5,193.9,32.5 M173,68.4c-13.1,0-20.2-0.7-20.2-17.3c0-16.2,6.6-17.2,20.2-17.2c13,0,20.5,0.6,20.5,17.2
		C193.6,67.7,186.2,68.4,173,68.4"/>
	<path class="st0" d="M105.7,32.1c-3.9-3.7-9.6-4.8-20.3-4.8c-11,0-16.7,1.2-20.6,5.1c-3.9,4.1-5.6,9.8-5.6,18.7
		c0,8.8,1.7,14.5,5.6,18.6c3.9,4,9.6,5.1,20.6,5.1c11,0,16.7-1.1,20.7-5.1c3.9-4,5.6-9.7,5.6-18.6V9.4h-5.9V32.1z M85.1,68.3
		c-13.7,0-20.2-1-20.2-17.2c0-16.7,7.1-17.3,20.2-17.3c13.1,0,20.5,0.7,20.5,17.3C105.7,67.8,98.1,68.3,85.1,68.3"/>
	<path class="st0" d="M26.8,27.3c-11,0-16.7,1.1-20.7,5.1c-3.9,4-5.6,9.7-5.6,18.6c0,8.8,1.7,14.5,5.6,18.7
		c3.9,3.9,9.6,5.1,20.7,5.1c10.7,0,16.4-1.2,20.3-4.8v4H53V51c0-8.8-1.7-14.5-5.6-18.6C43.5,28.4,37.8,27.3,26.8,27.3 M26.6,68.4
		C13.4,68.4,6.3,67.7,6.3,51c0-16.2,6.6-17.2,20.2-17.2c13,0,20.5,0.6,20.5,17.2C47.1,67.7,39.7,68.4,26.6,68.4"/>
	<path class="st0" d="M124.6,33.2h18.7v-5.8h-18.7v-5.1c0-8.2,4.3-9.7,11.6-9.7c5.9,0,10.3,1,10.7,6h6c-0.1-3.6-1.2-12.2-16.9-12.2
		c-10.6,0-17.6,4.2-17.6,15.9V74h6.2V33.2z"/>
</g>
</svg>
